<?xml version="1.0" encoding="UTF-8" standalone="no"?>
<!DOCTYPE svg PUBLIC "-//W3C//DTD SVG 1.1//EN"
 "http://www.w3.org/Graphics/SVG/1.1/DTD/svg11.dtd">
<!-- Generated by graphviz version 2.43.0 (0)
 -->
<!-- Title: snakemake_dag Pages: 1 -->
<svg width="662pt" height="620pt"
 viewBox="0.00 0.00 662.00 620.00" xmlns="http://www.w3.org/2000/svg" xmlns:xlink="http://www.w3.org/1999/xlink">
<g id="graph0" class="graph" transform="scale(1 1) rotate(0) translate(4 616)">
<title>snakemake_dag</title>
<polygon fill="white" stroke="transparent" points="-4,4 -4,-616 658,-616 658,4 -4,4"/>
<!-- 0 -->
<g id="node1" class="node">
<title>0</title>
<path fill="none" stroke="#56d8a9" stroke-width="2" d="M205,-36C205,-36 175,-36 175,-36 169,-36 163,-30 163,-24 163,-24 163,-12 163,-12 163,-6 169,0 175,0 175,0 205,0 205,0 211,0 217,-6 217,-12 217,-12 217,-24 217,-24 217,-30 211,-36 205,-36"/>
<text text-anchor="middle" x="190" y="-15.5" font-family="sans" font-size="10.00">all</text>
</g>
<!-- 1 -->
<g id="node2" class="node">
<title>1</title>
<path fill="none" stroke="#d85656" stroke-width="2" d="M95.5,-612C95.5,-612 14.5,-612 14.5,-612 8.5,-612 2.5,-606 2.5,-600 2.5,-600 2.5,-588 2.5,-588 2.5,-582 8.5,-576 14.5,-576 14.5,-576 95.5,-576 95.5,-576 101.5,-576 107.5,-582 107.5,-588 107.5,-588 107.5,-600 107.5,-600 107.5,-606 101.5,-612 95.5,-612"/>
<text text-anchor="middle" x="55" y="-591.5" font-family="sans" font-size="10.00">parsing_metadata</text>
</g>
<!-- 1&#45;&gt;0 -->
<g id="edge1" class="edge">
<title>1&#45;&gt;0</title>
<path fill="none" stroke="grey" stroke-width="2" d="M40.84,-575.85C33.31,-565.93 24.5,-552.89 19,-540 3.12,-502.8 0,-491.45 0,-451 0,-451 0,-451 0,-161 0,-115.41 16.35,-101.63 51,-72 80.24,-47 122.5,-33.15 152.74,-25.94"/>
<polygon fill="grey" stroke="grey" stroke-width="2" points="153.91,-29.27 162.9,-23.66 152.37,-22.44 153.91,-29.27"/>
</g>
<!-- 2 -->
<g id="node3" class="node">
<title>2</title>
<path fill="none" stroke="#d88d56" stroke-width="2" d="M70,-540C70,-540 40,-540 40,-540 34,-540 28,-534 28,-528 28,-528 28,-516 28,-516 28,-510 34,-504 40,-504 40,-504 70,-504 70,-504 76,-504 82,-510 82,-516 82,-516 82,-528 82,-528 82,-534 76,-540 70,-540"/>
<text text-anchor="middle" x="55" y="-519.5" font-family="sans" font-size="10.00">merge</text>
</g>
<!-- 1&#45;&gt;2 -->
<g id="edge12" class="edge">
<title>1&#45;&gt;2</title>
<path fill="none" stroke="grey" stroke-width="2" d="M55,-575.7C55,-567.98 55,-558.71 55,-550.11"/>
<polygon fill="grey" stroke="grey" stroke-width="2" points="58.5,-550.1 55,-540.1 51.5,-550.1 58.5,-550.1"/>
</g>
<!-- 3 -->
<g id="node4" class="node">
<title>3</title>
<path fill="none" stroke="#5692d8" stroke-width="2" d="M125,-468C125,-468 95,-468 95,-468 89,-468 83,-462 83,-456 83,-456 83,-444 83,-444 83,-438 89,-432 95,-432 95,-432 125,-432 125,-432 131,-432 137,-438 137,-444 137,-444 137,-456 137,-456 137,-462 131,-468 125,-468"/>
<text text-anchor="middle" x="110" y="-447.5" font-family="sans" font-size="10.00">qc</text>
</g>
<!-- 1&#45;&gt;3 -->
<g id="edge13" class="edge">
<title>1&#45;&gt;3</title>
<path fill="none" stroke="grey" stroke-width="2" d="M69.16,-575.85C76.69,-565.93 85.5,-552.89 91,-540 99.41,-520.29 104.24,-496.49 106.93,-478.46"/>
<polygon fill="grey" stroke="grey" stroke-width="2" points="110.43,-478.71 108.3,-468.33 103.49,-477.76 110.43,-478.71"/>
</g>
<!-- 2&#45;&gt;0 -->
<g id="edge2" class="edge">
<title>2&#45;&gt;0</title>
<path fill="none" stroke="grey" stroke-width="2" d="M51.56,-503.59C46.59,-476.9 38,-424.19 38,-379 38,-379 38,-379 38,-161 38,-115.41 56.17,-103.63 89,-72 107.34,-54.33 132.75,-41.03 153.49,-32.18"/>
<polygon fill="grey" stroke="grey" stroke-width="2" points="155.02,-35.34 162.95,-28.31 152.37,-28.86 155.02,-35.34"/>
</g>
<!-- 2&#45;&gt;3 -->
<g id="edge14" class="edge">
<title>2&#45;&gt;3</title>
<path fill="none" stroke="grey" stroke-width="2" d="M68.6,-503.7C75.12,-495.39 83.07,-485.28 90.25,-476.14"/>
<polygon fill="grey" stroke="grey" stroke-width="2" points="93.13,-478.13 96.56,-468.1 87.63,-473.81 93.13,-478.13"/>
</g>
<!-- 3&#45;&gt;0 -->
<g id="edge3" class="edge">
<title>3&#45;&gt;0</title>
<path fill="none" stroke="grey" stroke-width="2" d="M103.12,-431.83C93.18,-405.44 76,-353.14 76,-307 76,-307 76,-307 76,-161 76,-110 121.27,-66.88 154.76,-41.97"/>
<polygon fill="grey" stroke="grey" stroke-width="2" points="156.92,-44.73 162.98,-36.04 152.83,-39.05 156.92,-44.73"/>
</g>
<!-- 4 -->
<g id="node5" class="node">
<title>4</title>
<path fill="none" stroke="#70d856" stroke-width="2" d="M155.5,-396C155.5,-396 116.5,-396 116.5,-396 110.5,-396 104.5,-390 104.5,-384 104.5,-384 104.5,-372 104.5,-372 104.5,-366 110.5,-360 116.5,-360 116.5,-360 155.5,-360 155.5,-360 161.5,-360 167.5,-366 167.5,-372 167.5,-372 167.5,-384 167.5,-384 167.5,-390 161.5,-396 155.5,-396"/>
<text text-anchor="middle" x="136" y="-375.5" font-family="sans" font-size="10.00">unrelated</text>
</g>
<!-- 3&#45;&gt;4 -->
<g id="edge15" class="edge">
<title>3&#45;&gt;4</title>
<path fill="none" stroke="grey" stroke-width="2" d="M116.43,-431.7C119.36,-423.81 122.89,-414.3 126.14,-405.55"/>
<polygon fill="grey" stroke="grey" stroke-width="2" points="129.45,-406.7 129.65,-396.1 122.88,-404.26 129.45,-406.7"/>
</g>
<!-- 5 -->
<g id="node6" class="node">
<title>5</title>
<path fill="none" stroke="#56c9d8" stroke-width="2" d="M197,-324C197,-324 167,-324 167,-324 161,-324 155,-318 155,-312 155,-312 155,-300 155,-300 155,-294 161,-288 167,-288 167,-288 197,-288 197,-288 203,-288 209,-294 209,-300 209,-300 209,-312 209,-312 209,-318 203,-324 197,-324"/>
<text text-anchor="middle" x="182" y="-303.5" font-family="sans" font-size="10.00">filtering</text>
</g>
<!-- 3&#45;&gt;5 -->
<g id="edge17" class="edge">
<title>3&#45;&gt;5</title>
<path fill="none" stroke="grey" stroke-width="2" d="M137.15,-434.58C151.31,-425.51 167.44,-412.42 176,-396 185.88,-377.06 186.85,-352.69 185.65,-334.25"/>
<polygon fill="grey" stroke="grey" stroke-width="2" points="189.13,-333.8 184.74,-324.15 182.15,-334.43 189.13,-333.8"/>
</g>
<!-- 4&#45;&gt;0 -->
<g id="edge4" class="edge">
<title>4&#45;&gt;0</title>
<path fill="none" stroke="grey" stroke-width="2" d="M131.55,-359.65C125.12,-333.02 114,-280.4 114,-235 114,-235 114,-235 114,-161 114,-115.64 144.52,-70.75 166.88,-43.95"/>
<polygon fill="grey" stroke="grey" stroke-width="2" points="169.64,-46.09 173.51,-36.23 164.34,-41.53 169.64,-46.09"/>
</g>
<!-- 4&#45;&gt;5 -->
<g id="edge16" class="edge">
<title>4&#45;&gt;5</title>
<path fill="none" stroke="grey" stroke-width="2" d="M147.37,-359.7C152.72,-351.56 159.2,-341.69 165.11,-332.7"/>
<polygon fill="grey" stroke="grey" stroke-width="2" points="168.19,-334.38 170.76,-324.1 162.34,-330.54 168.19,-334.38"/>
</g>
<!-- 5&#45;&gt;0 -->
<g id="edge5" class="edge">
<title>5&#45;&gt;0</title>
<path fill="none" stroke="grey" stroke-width="2" d="M177.54,-287.95C175.06,-277.63 172.25,-264.15 171,-252 163.38,-177.75 176.51,-89.93 184.52,-46.36"/>
<polygon fill="grey" stroke="grey" stroke-width="2" points="188,-46.74 186.42,-36.27 181.13,-45.44 188,-46.74"/>
</g>
<!-- 6 -->
<g id="node7" class="node">
<title>6</title>
<path fill="none" stroke="#56d873" stroke-width="2" d="M276,-252C276,-252 192,-252 192,-252 186,-252 180,-246 180,-240 180,-240 180,-228 180,-228 180,-222 186,-216 192,-216 192,-216 276,-216 276,-216 282,-216 288,-222 288,-228 288,-228 288,-240 288,-240 288,-246 282,-252 276,-252"/>
<text text-anchor="middle" x="234" y="-231.5" font-family="sans" font-size="10.00">annotation_Rscript</text>
</g>
<!-- 5&#45;&gt;6 -->
<g id="edge18" class="edge">
<title>5&#45;&gt;6</title>
<path fill="none" stroke="grey" stroke-width="2" d="M194.85,-287.7C201.03,-279.39 208.54,-269.28 215.32,-260.14"/>
<polygon fill="grey" stroke="grey" stroke-width="2" points="218.14,-262.22 221.29,-252.1 212.52,-258.04 218.14,-262.22"/>
</g>
<!-- 6&#45;&gt;0 -->
<g id="edge6" class="edge">
<title>6&#45;&gt;0</title>
<path fill="none" stroke="grey" stroke-width="2" d="M230.47,-215.85C222.85,-178.75 204.76,-90.81 195.57,-46.1"/>
<polygon fill="grey" stroke="grey" stroke-width="2" points="198.99,-45.32 193.54,-36.23 192.13,-46.73 198.99,-45.32"/>
</g>
<!-- 7 -->
<g id="node8" class="node">
<title>7</title>
<path fill="none" stroke="#afd856" stroke-width="2" d="M367.5,-180C367.5,-180 334.5,-180 334.5,-180 328.5,-180 322.5,-174 322.5,-168 322.5,-168 322.5,-156 322.5,-156 322.5,-150 328.5,-144 334.5,-144 334.5,-144 367.5,-144 367.5,-144 373.5,-144 379.5,-150 379.5,-156 379.5,-156 379.5,-168 379.5,-168 379.5,-174 373.5,-180 367.5,-180"/>
<text text-anchor="middle" x="351" y="-159.5" font-family="sans" font-size="10.00">filter_AF</text>
</g>
<!-- 6&#45;&gt;7 -->
<g id="edge19" class="edge">
<title>6&#45;&gt;7</title>
<path fill="none" stroke="grey" stroke-width="2" d="M262.62,-215.88C277.92,-206.72 296.94,-195.34 313.42,-185.48"/>
<polygon fill="grey" stroke="grey" stroke-width="2" points="315.48,-188.33 322.27,-180.19 311.89,-182.32 315.48,-188.33"/>
</g>
<!-- 7&#45;&gt;0 -->
<g id="edge7" class="edge">
<title>7&#45;&gt;0</title>
<path fill="none" stroke="grey" stroke-width="2" d="M322.5,-151.24C300.09,-142.51 269.07,-128 247,-108 227.58,-90.4 212.08,-64.72 202.18,-45.47"/>
<polygon fill="grey" stroke="grey" stroke-width="2" points="205.22,-43.73 197.64,-36.33 198.95,-46.84 205.22,-43.73"/>
</g>
<!-- 8 -->
<g id="node9" class="node">
<title>8</title>
<path fill="none" stroke="#d8cb56" stroke-width="2" d="M330,-108C330,-108 268,-108 268,-108 262,-108 256,-102 256,-96 256,-96 256,-84 256,-84 256,-78 262,-72 268,-72 268,-72 330,-72 330,-72 336,-72 342,-78 342,-84 342,-84 342,-96 342,-96 342,-102 336,-108 330,-108"/>
<text text-anchor="middle" x="299" y="-93" font-family="sans" font-size="10.00">split_reheader</text>
<text text-anchor="middle" x="299" y="-82" font-family="sans" font-size="10.00">file: 22</text>
</g>
<!-- 7&#45;&gt;8 -->
<g id="edge20" class="edge">
<title>7&#45;&gt;8</title>
<path fill="none" stroke="grey" stroke-width="2" d="M338.15,-143.7C331.97,-135.39 324.46,-125.28 317.68,-116.14"/>
<polygon fill="grey" stroke="grey" stroke-width="2" points="320.48,-114.04 311.71,-108.1 314.86,-118.22 320.48,-114.04"/>
</g>
<!-- 9 -->
<g id="node10" class="node">
<title>9</title>
<path fill="none" stroke="#d8cb56" stroke-width="2" d="M434,-108C434,-108 372,-108 372,-108 366,-108 360,-102 360,-96 360,-96 360,-84 360,-84 360,-78 366,-72 372,-72 372,-72 434,-72 434,-72 440,-72 446,-78 446,-84 446,-84 446,-96 446,-96 446,-102 440,-108 434,-108"/>
<text text-anchor="middle" x="403" y="-93" font-family="sans" font-size="10.00">split_reheader</text>
<text text-anchor="middle" x="403" y="-82" font-family="sans" font-size="10.00">file: 20</text>
</g>
<!-- 7&#45;&gt;9 -->
<g id="edge21" class="edge">
<title>7&#45;&gt;9</title>
<path fill="none" stroke="grey" stroke-width="2" d="M363.85,-143.7C370.03,-135.39 377.54,-125.28 384.32,-116.14"/>
<polygon fill="grey" stroke="grey" stroke-width="2" points="387.14,-118.22 390.29,-108.1 381.52,-114.04 387.14,-118.22"/>
</g>
<!-- 10 -->
<g id="node11" class="node">
<title>10</title>
<path fill="none" stroke="#d8cb56" stroke-width="2" d="M538,-108C538,-108 476,-108 476,-108 470,-108 464,-102 464,-96 464,-96 464,-84 464,-84 464,-78 470,-72 476,-72 476,-72 538,-72 538,-72 544,-72 550,-78 550,-84 550,-84 550,-96 550,-96 550,-102 544,-108 538,-108"/>
<text text-anchor="middle" x="507" y="-93" font-family="sans" font-size="10.00">split_reheader</text>
<text text-anchor="middle" x="507" y="-82" font-family="sans" font-size="10.00">file: 19</text>
</g>
<!-- 7&#45;&gt;10 -->
<g id="edge22" class="edge">
<title>7&#45;&gt;10</title>
<path fill="none" stroke="grey" stroke-width="2" d="M379.61,-148.16C401.94,-138.14 433.44,-124.01 459.53,-112.3"/>
<polygon fill="grey" stroke="grey" stroke-width="2" points="461.18,-115.4 468.87,-108.11 458.31,-109.01 461.18,-115.4"/>
</g>
<!-- 11 -->
<g id="node12" class="node">
<title>11</title>
<path fill="none" stroke="#d8cb56" stroke-width="2" d="M642,-108C642,-108 580,-108 580,-108 574,-108 568,-102 568,-96 568,-96 568,-84 568,-84 568,-78 574,-72 580,-72 580,-72 642,-72 642,-72 648,-72 654,-78 654,-84 654,-84 654,-96 654,-96 654,-102 648,-108 642,-108"/>
<text text-anchor="middle" x="611" y="-93" font-family="sans" font-size="10.00">split_reheader</text>
<text text-anchor="middle" x="611" y="-82" font-family="sans" font-size="10.00">file: 21</text>
</g>
<!-- 7&#45;&gt;11 -->
<g id="edge23" class="edge">
<title>7&#45;&gt;11</title>
<path fill="none" stroke="grey" stroke-width="2" d="M379.76,-154.31C418.24,-145.22 488.77,-128.08 558.16,-108.15"/>
<polygon fill="grey" stroke="grey" stroke-width="2" points="559.31,-111.46 567.94,-105.32 557.36,-104.74 559.31,-111.46"/>
</g>
<!-- 8&#45;&gt;0 -->
<g id="edge8" class="edge">
<title>8&#45;&gt;0</title>
<path fill="none" stroke="grey" stroke-width="2" d="M272.34,-71.88C258.22,-62.81 240.69,-51.55 225.44,-41.76"/>
<polygon fill="grey" stroke="grey" stroke-width="2" points="227.07,-38.65 216.77,-36.19 223.29,-44.54 227.07,-38.65"/>
</g>
<!-- 9&#45;&gt;0 -->
<g id="edge9" class="edge">
<title>9&#45;&gt;0</title>
<path fill="none" stroke="grey" stroke-width="2" d="M359.9,-74.83C320.9,-62.02 264.06,-43.34 227.06,-31.18"/>
<polygon fill="grey" stroke="grey" stroke-width="2" points="227.77,-27.73 217.18,-27.93 225.58,-34.38 227.77,-27.73"/>
</g>
<!-- 10&#45;&gt;0 -->
<g id="edge10" class="edge">
<title>10&#45;&gt;0</title>
<path fill="none" stroke="grey" stroke-width="2" d="M463.99,-74.5C460.96,-73.62 457.94,-72.77 455,-72 374.76,-50.94 278.94,-33.69 227.34,-25.03"/>
<polygon fill="grey" stroke="grey" stroke-width="2" points="227.77,-21.55 217.33,-23.36 226.62,-28.46 227.77,-21.55"/>
</g>
<!-- 11&#45;&gt;0 -->
<g id="edge11" class="edge">
<title>11&#45;&gt;0</title>
<path fill="none" stroke="grey" stroke-width="2" d="M567.75,-74.24C564.8,-73.43 561.87,-72.67 559,-72 439.35,-44.07 294.23,-28.42 227.22,-22.19"/>
<polygon fill="grey" stroke="grey" stroke-width="2" points="227.43,-18.7 217.15,-21.28 226.79,-25.67 227.43,-18.7"/>
</g>
</g>
</svg>
